<svg id="_x33_0" enable-background="new 0 0 64 64" height="512" viewBox="0 0 64 64" width="512" xmlns="http://www.w3.org/2000/svg"><path d="m36 50 2 6h-18l2-6z" fill="#aab2bd"/><path d="m45 60v2h-32v-2c0-2.21 1.79-4 4-4h3 18 3c2.21 0 4 1.79 4 4z" fill="#aab2bd"/><path d="m5 8c-1.66 0-3 1.34-3 3v36c0 1.66 1.34 3 3 3h48c1.66 0 3-1.34 3-3v-39z" fill="#ccd1d9"/><path d="m49 42h-40c-.552 0-1-.448-1-1v-26c0-.552.448-1 1-1h40c.552 0 1 .448 1 1v26c0 .552-.448 1-1 1z" fill="#69d6f4"/><path d="m24 24v8h-10v-6h6v-2z" fill="#b4dd7f"/><path d="m20 24v2h-6-2v-8h8z" fill="#fcd770"/><path d="m62 24v6c0 1.1-.9 2-2 2h-4-6-20c-1.1 0-2-.9-2-2v-6z" fill="#fcd770"/><path d="m62 4v20h-34v-10-6-4c0-1.1.9-2 2-2h30c1.1 0 2 .9 2 2z" fill="#e6e9ed"/><path d="m52 13-12 6v-12z" fill="#ff826e"/><path d="m60 1h-30c-1.654 0-3 1.346-3 3v3h-22c-2.206 0-4 1.794-4 4v36c0 2.206 1.794 4 4 4h15.613l-1.333 4h-2.28c-2.757 0-5 2.243-5 5v3h34v-3c0-2.757-2.243-5-5-5h-2.28l-1.333-4h15.613c2.206 0 4-1.794 4-4v-14h3c1.654 0 3-1.346 3-3v-26c0-1.654-1.346-3-3-3zm-30 2h30c.552 0 1 .449 1 1v19h-32v-19c0-.551.448-1 1-1zm0 30h19v8h-40v-26h18v15c0 1.654 1.346 3 3 3zm14 27v1h-30v-1c0-1.654 1.346-3 3-3h24c1.654 0 3 1.346 3 3zm-7.387-5h-15.226l1.333-4h12.56zm18.387-8c0 1.103-.897 2-2 2h-48c-1.103 0-2-.897-2-2v-36c0-1.103.897-2 2-2h22v4h-18c-1.103 0-2 .897-2 2v26c0 1.103.897 2 2 2h40c1.103 0 2-.897 2-2v-8h4zm5-16h-30c-.552 0-1-.449-1-1v-5h32v5c0 .551-.448 1-1 1z"/><path d="m33 27h24v2h-24z"/><path d="m39 5.382v15.236l15.236-7.618zm2 3.236 8.764 4.382-8.764 4.382z"/><path d="m13 33h12v-10h-4v-6h-10v10h2zm10-8v6h-8v-4h6v-2zm-10-6h6v6h-6z"/><path d="m11 37h32v2h-32z"/><path d="m45 37h2v2h-2z"/><path d="m43 45h2v2h-2z"/><path d="m39 45h2v2h-2z"/><path d="m35 45h2v2h-2z"/></svg>